<svg width="363" height="94" viewBox="0 0 363 94" fill="none" xmlns="http://www.w3.org/2000/svg">
<path d="M82.2085 33.2893L81.5573 33.6612L81.5575 33.6616L82.2085 33.2893ZM86.0969 40.0407L86.7465 39.6658L86.7456 39.6642L86.0969 40.0407ZM89.9757 46.785L89.3213 47.1513L89.3216 47.1518L89.9757 46.785ZM89.8954 47.6894L89.2423 47.3207L89.2417 47.3218L89.8954 47.6894ZM84.4733 57.207L83.8224 56.8344L83.8223 56.8345L84.4733 57.207ZM77.6911 69.0344L78.3409 69.4088L78.3414 69.4079L77.6911 69.0344ZM73.9201 75.4963L73.2707 75.1212L73.2705 75.1215L73.9201 75.4963ZM71.3103 80.1086L71.9616 80.4804L71.9624 80.4792L71.3103 80.1086ZM70.112 80.6419L70.1112 81.3919H70.112V80.6419ZM46.3156 80.6431L46.316 81.3931H46.3164L46.3156 80.6431ZM33.2078 80.6647L33.2022 79.9147L33.2019 79.9147L33.2078 80.6647ZM31.6524 79.7435L32.3134 79.3889L32.3133 79.3889L31.6524 79.7435ZM28.4818 74.3961L29.1311 74.0207L29.1311 74.0206L28.4818 74.3961ZM25.0644 68.3185L25.7132 67.9423L25.7131 67.9422L25.0644 68.3185ZM20.4115 58.9434C20.201 58.5867 19.7411 58.4682 19.3844 58.6787C19.0277 58.8892 18.9092 59.3491 19.1197 59.7058L20.4115 58.9434ZM77.9937 27.3319C79.1554 29.4607 80.36 31.5647 81.5573 33.6612L82.8598 32.9174C81.6605 30.8173 80.4638 28.7269 79.3104 26.6134L77.9937 27.3319ZM81.5575 33.6616C82.8475 35.9173 84.1436 38.1696 85.4483 40.4172L86.7456 39.6642C85.4428 37.4198 84.1483 35.1703 82.8596 32.917L81.5575 33.6616ZM85.4474 40.4157C86.7482 42.6692 88.0579 44.8941 89.3213 47.1513L90.6302 46.4187C89.3604 44.1501 88.0387 41.9045 86.7465 39.6658L85.4474 40.4157ZM89.3216 47.1518C89.2905 47.0965 89.2892 47.0629 89.2907 47.0753C89.2917 47.0838 89.2931 47.1083 89.2888 47.1469C89.2848 47.1843 89.2767 47.2237 89.266 47.2592C89.2549 47.2962 89.2447 47.3165 89.2423 47.3207L90.5485 48.0581C90.677 47.8305 90.7529 47.5582 90.78 47.3095C90.8048 47.0819 90.8049 46.7302 90.6299 46.4181L89.3216 47.1518ZM89.2417 47.3218C87.4533 50.5016 85.6373 53.6646 83.8224 56.8344L85.1241 57.5797C86.9376 54.4124 88.7571 51.2432 90.5491 48.0571L89.2417 47.3218ZM83.8223 56.8345C81.565 60.7785 79.3041 64.7202 77.0407 68.6608L78.3414 69.4079C80.6051 65.4668 82.8664 61.5244 85.1242 57.5796L83.8223 56.8345ZM77.0412 68.6599C75.774 70.8592 74.5478 72.9102 73.2707 75.1212L74.5696 75.8715C75.7873 73.7633 77.1181 71.5311 78.3409 69.4088L77.0412 68.6599ZM73.2705 75.1215C72.3872 76.652 71.5231 78.2162 70.6582 79.7381L71.9624 80.4792C72.8422 78.931 73.6868 77.4011 74.5697 75.8712L73.2705 75.1215ZM70.6589 79.7368C70.6326 79.783 70.6112 79.8042 70.5991 79.8144C70.587 79.8246 70.5701 79.8355 70.5405 79.8464C70.4673 79.8734 70.3453 79.8919 70.112 79.8919V81.3919C70.3821 81.3919 70.7261 81.3768 71.0598 81.2536C71.4248 81.1189 71.7391 80.8703 71.9616 80.4804L70.6589 79.7368ZM70.1128 79.8919C62.1809 79.8835 54.2478 79.8847 46.3148 79.8931L46.3164 81.3931C54.2485 81.3847 62.1805 81.3835 70.1112 81.3919L70.1128 79.8919ZM46.3152 79.8931C41.9499 79.8955 37.5745 79.8823 33.2022 79.9147L33.2134 81.4147C37.5788 81.3823 41.9436 81.3955 46.316 81.3931L46.3152 79.8931ZM33.2019 79.9147C32.8834 79.9173 32.7439 79.872 32.663 79.8254C32.5845 79.7802 32.4701 79.6812 32.3134 79.3889L30.9915 80.098C31.2194 80.5228 31.5016 80.8874 31.9142 81.1251C32.3242 81.3613 32.7701 81.4182 33.2137 81.4147L33.2019 79.9147ZM32.3133 79.3889C31.3356 77.5667 30.1272 75.7432 29.1311 74.0207L27.8326 74.7716C28.9118 76.638 30.0113 78.2712 30.9916 80.0981L32.3133 79.3889ZM29.1311 74.0206C28.5534 73.0218 27.9939 72.0112 27.43 70.9934C26.8673 69.9777 26.3004 68.955 25.7132 67.9423L24.4156 68.6947C24.9942 69.6927 25.5543 70.7028 26.1179 71.7203C26.6805 72.7357 27.2467 73.7586 27.8326 74.7716L29.1311 74.0206ZM25.7131 67.9422C23.9654 64.929 22.1775 61.9356 20.4115 58.9434L19.1197 59.7058C20.8911 62.7071 22.6716 65.688 24.4156 68.6948L25.7131 67.9422Z" fill="#2E55EC"></path>
<path d="M24.971 89.5232C25.1823 89.8794 25.6425 89.9968 25.9987 89.7854C26.3549 89.5741 26.4724 89.114 26.261 88.7577L24.971 89.5232ZM20.098 79.7922L20.7472 79.4167L20.7471 79.4165L20.098 79.7922ZM14.0072 69.1035L14.6571 68.7291L14.6569 68.7289L14.0072 69.1035ZM6.34306 55.9069L5.69387 56.2825L5.69388 56.2825L6.34306 55.9069ZM1.80042 48.0024L1.15517 48.3847L1.15527 48.3848L1.80042 48.0024ZM1.816 46.3256L1.17448 45.9371L1.17416 45.9376L1.816 46.3256ZM5.16157 40.5555L5.81131 40.9301L5.8115 40.9298L5.16157 40.5555ZM8.77794 34.2833L8.12875 33.9077L8.12842 33.9083L8.77794 34.2833ZM14.8256 23.848L15.4743 24.2245L15.4748 24.2235L14.8256 23.848ZM19.8559 15.1208L19.2065 14.7455L19.2056 14.7471L19.8559 15.1208ZM23.5586 8.73926L22.9081 8.36596L22.908 8.36613L23.5586 8.73926ZM26.1744 4.1306L25.5314 3.74448L25.5304 3.74622L26.1744 4.1306ZM27.0431 3.66336L27.0004 2.91458L26.9988 2.91467L27.0431 3.66336ZM30.0855 3.64174L30.0857 2.89174H30.0855V3.64174ZM26.261 88.7577C24.4122 85.6419 22.5562 82.5444 20.7472 79.4167L19.4487 80.1677C21.2633 83.305 23.1267 86.4148 24.971 89.5232L26.261 88.7577ZM20.7471 79.4165C18.6794 75.8432 16.7261 72.3208 14.6571 68.7291L13.3573 69.4779C15.3816 72.992 17.4089 76.6426 19.4488 80.1678L20.7471 79.4165ZM14.6569 68.7289C12.1189 64.3259 9.53384 59.9244 6.99224 55.5313L5.69388 56.2825C8.2473 60.696 10.8148 65.0673 13.3574 69.4781L14.6569 68.7289ZM6.99224 55.5313C5.4824 52.9215 3.99531 50.2342 2.44558 47.6199L1.15527 48.3848C2.70426 50.9978 4.16012 53.6314 5.69387 56.2825L6.99224 55.5313ZM2.44568 47.6201C2.30121 47.3762 2.27999 47.2469 2.28131 47.1691C2.28268 47.0879 2.31037 46.9576 2.45784 46.7136L1.17416 45.9376C0.954961 46.3002 0.789133 46.6948 0.781522 47.1436C0.773855 47.5957 0.928177 48.0015 1.15517 48.3847L2.44568 47.6201ZM2.45752 46.7142C3.61457 44.8037 4.7077 42.8442 5.81131 40.9301L4.51182 40.1809C3.39384 42.1199 2.32051 44.0448 1.17448 45.9371L2.45752 46.7142ZM5.8115 40.9298C7.01565 38.8388 8.22096 36.7479 9.42745 34.6583L8.12842 33.9083C6.9216 35.9985 5.716 38.0899 4.51163 40.1812L5.8115 40.9298ZM9.42712 34.6589C11.44 31.1796 13.4565 27.7015 15.4743 24.2245L14.1769 23.4716C12.1589 26.949 10.1421 30.4277 8.12875 33.9077L9.42712 34.6589ZM15.4748 24.2235C17.1564 21.3162 18.8331 18.4064 20.5062 15.4944L19.2056 14.7471C17.5331 17.6581 15.8571 20.5665 14.1764 23.4725L15.4748 24.2235ZM20.5053 15.496C21.7298 13.377 22.9867 11.2438 24.2092 9.11239L22.908 8.36613C21.6835 10.501 20.4433 12.6054 19.2065 14.7455L20.5053 15.496ZM24.2091 9.11256C25.1079 7.54621 25.9142 6.02993 26.8184 4.51497L25.5304 3.74622C24.6252 5.26286 23.7682 6.86707 22.9081 8.36596L24.2091 9.11256ZM26.8174 4.51671C26.8004 4.54496 26.7917 4.54734 26.8109 4.53132C26.8281 4.51694 26.857 4.49688 26.8968 4.47614C26.9361 4.45567 26.9777 4.4389 27.0161 4.42734C27.0558 4.41538 27.0806 4.41246 27.0874 4.41205L26.9988 2.91467C26.7192 2.93122 26.4364 3.02465 26.2039 3.14576C25.9808 3.26196 25.7052 3.45506 25.5314 3.74448L26.8174 4.51671ZM27.0858 4.41215C28.0689 4.3561 29.0348 4.39174 30.0855 4.39174V2.89174C29.1064 2.89174 28.04 2.85532 27.0004 2.91458L27.0858 4.41215ZM30.0854 4.39174C35.3034 4.39294 40.5211 4.35562 45.7354 4.31893C50.9506 4.28223 56.1627 4.24616 61.3742 4.24976L61.3752 2.74976C56.157 2.74616 50.9393 2.78227 45.7248 2.81897C40.5094 2.85567 35.2974 2.89294 30.0857 2.89174L30.0854 4.39174Z" fill="#2E55EC"></path>
<path d="M33.0996 29.5343L32.4501 29.1593L32.4498 29.1597L33.0996 29.5343ZM28.2538 37.9649L27.6047 37.5891L27.6047 37.5892L28.2538 37.9649ZM23.4188 46.2321L22.7744 45.8483L22.7744 45.8484L23.4188 46.2321ZM23.5422 48.3545L22.8987 48.7397L22.8989 48.7401L23.5422 48.3545ZM28.0741 56.1293L28.7244 55.7556L28.7242 55.7554L28.0741 56.1293ZM30.8564 61.0611L31.5039 60.6824L31.5038 60.6824L30.8564 61.0611ZM34.0654 66.3952L33.4177 66.7733L33.418 66.7738L34.0654 66.3952ZM36.9113 71.405L36.2664 71.788C36.2811 71.8127 36.2972 71.8365 36.3145 71.8593L36.9113 71.405ZM37.792 71.8723L37.75 72.6211C37.7602 72.6217 37.7703 72.622 37.7805 72.6222L37.792 71.8723ZM52.4588 72.6427C52.873 72.6427 53.2088 72.3069 53.2088 71.8927C53.2088 71.4785 52.873 71.1427 52.4588 71.1427V72.6427ZM34.9187 24.966C34.0509 26.3462 33.2502 27.7734 32.4501 29.1593L33.7491 29.9093C34.5619 28.5014 35.3405 27.1132 36.1886 25.7645L34.9187 24.966ZM32.4498 29.1597C30.8266 31.9754 29.2294 34.7827 27.6047 37.5891L28.9029 38.3407C30.5255 35.5379 32.1348 32.7095 33.7494 29.9089L32.4498 29.1597ZM27.6047 37.5892C26.005 40.353 24.405 43.1107 22.7744 45.8483L24.0632 46.6159C25.699 43.8693 27.3032 41.1043 28.9029 38.3406L27.6047 37.5892ZM22.7744 45.8484C22.4744 46.3521 22.3457 46.8599 22.3981 47.3857C22.4482 47.8886 22.6577 48.3371 22.8987 48.7397L24.1857 47.9693C23.9917 47.6452 23.9089 47.4199 23.8907 47.237C23.8748 47.0769 23.9018 46.8868 24.0632 46.6159L22.7744 45.8484ZM22.8989 48.7401C24.437 51.306 25.9277 53.9014 27.4239 56.5032L28.7242 55.7554C27.2295 53.1563 25.7318 50.5486 24.1855 47.9689L22.8989 48.7401ZM27.4238 56.5029C28.3367 58.0918 29.2667 59.8287 30.209 61.4397L31.5038 60.6824C30.5409 59.036 29.6927 57.441 28.7244 55.7556L27.4238 56.5029ZM30.209 61.4397C30.7368 62.3422 31.2813 63.2339 31.8212 64.1184C32.3623 65.005 32.8989 65.8846 33.4177 66.7733L34.7131 66.0171C34.1858 65.1137 33.6415 64.2217 33.1015 63.3369C32.5603 62.4501 32.0233 61.5707 31.5039 60.6824L30.209 61.4397ZM33.418 66.7738C33.8979 67.5945 34.3602 68.4268 34.8292 69.268C35.2968 70.1066 35.7705 70.953 36.2664 71.788L37.5561 71.022C37.0719 70.2068 36.6074 69.377 36.1394 68.5376C35.6728 67.7009 35.2022 66.8534 34.7128 66.0166L33.418 66.7738ZM36.3145 71.8593C36.4862 72.0848 36.7039 72.2669 36.9501 72.3971L37.6513 71.0711C37.5932 71.0404 37.5449 70.9991 37.508 70.9507L36.3145 71.8593ZM36.9501 72.3971C37.194 72.5261 37.4667 72.6052 37.75 72.6211L37.834 71.1234C37.7746 71.1201 37.7118 71.1031 37.6513 71.0711L36.9501 72.3971ZM37.7805 72.6222C40.2063 72.6595 42.6352 72.6427 45.0475 72.6427V71.1427C42.6213 71.1427 40.214 71.1595 37.8036 71.1223L37.7805 72.6222ZM45.0475 72.6427H52.4588V71.1427H45.0475V72.6427Z" fill="#2E55EC"></path>
<path d="M49.4482 21.7266C49.034 21.7228 48.6952 22.0556 48.6914 22.4698C48.6877 22.884 49.0204 23.2228 49.4346 23.2265L49.4482 21.7266ZM57.4015 22.4874H58.1515C58.1515 22.0732 57.8157 21.7374 57.4015 21.7374V22.4874ZM57.4015 22.5006H56.6515C56.6515 22.9148 56.9873 23.2506 57.4015 23.2506V22.5006ZM65.1267 22.4934L65.1309 23.2434L65.1326 23.2434L65.1267 22.4934ZM66.0913 23.0459L65.4393 23.4166L65.4398 23.4173L66.0913 23.0459ZM72.2253 33.6193L71.5756 33.994L71.5756 33.9941L72.2253 33.6193ZM77.9158 43.5837L77.2659 43.9579L77.266 43.9582L77.9158 43.5837ZM79.7192 46.5324L80.4011 46.2201C80.395 46.2067 80.3885 46.1935 80.3816 46.1805L79.7192 46.5324ZM79.8534 47.139L80.6034 47.1347V47.1347L79.8534 47.139ZM79.7264 47.7479L80.3798 48.1161C80.3916 48.0951 80.4025 48.0736 80.4122 48.0515L79.7264 47.7479ZM75.7973 54.4682L76.4468 54.8432L76.4468 54.8432L75.7973 54.4682ZM73.3349 58.9207L72.6855 58.5454L72.6855 58.5454L73.3349 58.9207ZM69.9186 64.68L69.2711 64.3015L69.271 64.3016L69.9186 64.68ZM49.4346 23.2265C52.0921 23.2506 54.7535 23.2374 57.4015 23.2374V21.7374C54.7435 21.7374 52.0966 21.7506 49.4482 21.7266L49.4346 23.2265ZM56.6515 22.4874V22.5006H58.1515V22.4874H56.6515ZM57.4015 23.2506C59.9738 23.2506 62.553 23.2578 65.1309 23.2434L65.1225 21.7434C62.5502 21.7578 59.9794 21.7506 57.4015 21.7506V23.2506ZM65.1326 23.2434C65.3094 23.242 65.3379 23.2657 65.327 23.2598C65.3108 23.251 65.3504 23.2602 65.4393 23.4166L66.7433 22.6752C66.5782 22.3848 66.3638 22.1159 66.0429 21.9416C65.7274 21.7703 65.4006 21.7412 65.1208 21.7434L65.1326 23.2434ZM65.4398 23.4173C67.4563 26.9547 69.5486 30.4793 71.5756 33.994L72.875 33.2446C70.8302 29.6991 68.7621 26.2164 66.7429 22.6744L65.4398 23.4173ZM71.5756 33.9941C73.5046 37.3374 75.3334 40.6018 77.2659 43.9579L78.5658 43.2094C76.6806 39.9354 74.7684 36.5265 72.8749 33.2445L71.5756 33.9941ZM77.266 43.9582C77.5649 44.4768 77.8935 44.9795 78.1998 45.4568C78.5108 45.9415 78.8031 46.4065 79.0569 46.8843L80.3816 46.1805C80.0962 45.6434 79.7743 45.1331 79.4622 44.6467C79.1454 44.1529 78.8419 43.6887 78.5657 43.2092L77.266 43.9582ZM79.0373 46.8447C79.0805 46.939 79.1029 47.0405 79.1034 47.1433L80.6034 47.1347C80.6016 46.8194 80.5329 46.5078 80.4011 46.2201L79.0373 46.8447ZM79.1034 47.1433C79.104 47.2473 79.0828 47.3489 79.0406 47.4443L80.4122 48.0515C80.5401 47.7626 80.6052 47.4511 80.6034 47.1347L79.1034 47.1433ZM79.073 47.3798C77.7965 49.6451 76.4643 51.8133 75.1478 54.0931L76.4468 54.8432C77.7257 52.6285 79.1088 50.3717 80.3798 48.1161L79.073 47.3798ZM75.1478 54.0931C74.7175 54.8381 74.309 55.5936 73.9064 56.3381C73.5021 57.0856 73.1035 57.8222 72.6855 58.5454L73.9842 59.296C74.4146 58.5514 74.8231 57.7962 75.2258 57.0517C75.6301 56.304 76.0287 55.5671 76.4468 54.8432L75.1478 54.0931ZM72.6855 58.5454C71.5585 60.4956 70.4212 62.3344 69.2711 64.3015L70.5661 65.0585C71.6688 63.1724 72.8776 61.2109 73.9842 59.2959L72.6855 58.5454ZM69.271 64.3016C68.364 65.8541 66.487 68.8831 65.595 70.5027L66.9088 71.2264C67.795 69.6173 69.6135 66.6889 70.5662 65.0584L69.271 64.3016Z" fill="#2E55EC"></path>
<path d="M77.7352 4.37022C77.5308 4.00993 77.0731 3.88351 76.7128 4.08786C76.3525 4.29221 76.2261 4.74995 76.4304 5.11025L77.7352 4.37022ZM80.5685 10.7206L79.9206 11.0983L79.9208 11.0986L80.5685 10.7206ZM84.2832 17.1189L84.9338 16.7459L84.9337 16.7457L84.2832 17.1189ZM89.8983 26.956L90.5478 26.581L90.5477 26.5809L89.8983 26.956ZM95.1886 36.0016L94.5405 36.379L94.5406 36.3792L95.1886 36.0016ZM101.308 46.5305L101.956 46.1532L101.956 46.1526L101.308 46.5305ZM101.211 47.949L101.856 48.3311L101.857 48.3306L101.211 47.949ZM97.5264 54.2801L96.8765 53.9058L96.8764 53.9059L97.5264 54.2801ZM91.0881 65.49L91.7382 65.864L91.7389 65.8629L91.0881 65.49ZM84.7122 76.5511L84.0627 76.176L84.0618 76.1775L84.7122 76.5511ZM79.7885 85.1498L79.139 84.7748L79.1389 84.7748L79.7885 85.1498ZM76.9102 90.054L76.2543 89.6903L76.2543 89.6904L76.9102 90.054ZM75.7287 90.6797L75.7304 89.9297H75.73L75.7287 90.6797ZM58.953 90.6845L58.9536 91.4345H58.9546L58.953 90.6845ZM76.4304 5.11025C77.5714 7.12185 78.7645 9.11513 79.9206 11.0983L81.2165 10.3428C80.0479 8.33832 78.8709 6.37273 77.7352 4.37022L76.4304 5.11025ZM79.9208 11.0986C81.1639 13.2291 82.4073 15.3559 83.6326 17.4921L84.9337 16.7457C83.705 14.6036 82.4584 12.4712 81.2163 10.3426L79.9208 11.0986ZM83.6325 17.4919C85.5038 20.7562 87.3615 24.0637 89.2488 27.3311L90.5477 26.5809C88.6581 23.3094 86.8179 20.0324 84.9338 16.7459L83.6325 17.4919ZM89.2487 27.3309C90.9937 30.3539 92.7892 33.3718 94.5405 36.379L95.8367 35.6241C94.0723 32.5945 92.2945 29.6069 90.5478 26.581L89.2487 27.3309ZM94.5406 36.3792C96.5757 39.8706 98.622 43.4134 100.66 46.9083L101.956 46.1526C99.9034 42.6331 97.89 39.1469 95.8366 35.6239L94.5406 36.3792ZM100.66 46.9078C100.736 47.0377 100.738 47.1119 100.732 47.1673C100.723 47.2456 100.685 47.3659 100.565 47.5674L101.857 48.3306C102.022 48.0517 102.18 47.7179 102.223 47.3347C102.268 46.9286 102.178 46.5338 101.956 46.1532L100.66 46.9078ZM100.566 47.5669C99.3195 49.6718 98.0954 51.789 96.8765 53.9058L98.1764 54.6543C99.3948 52.5384 100.615 50.4277 101.856 48.3311L100.566 47.5669ZM96.8764 53.9059C94.7265 57.6406 92.5801 61.3777 90.4374 65.1172L91.7389 65.8629C93.8811 62.1243 96.027 58.3881 98.1764 54.6542L96.8764 53.9059ZM90.438 65.116C88.3161 68.8043 86.1906 72.4913 84.0627 76.176L85.3616 76.9261C87.4899 73.2408 89.6159 69.553 91.7382 65.864L90.438 65.116ZM84.0618 76.1775C82.4121 79.0499 80.791 81.9136 79.139 84.7748L80.438 85.5248C82.0884 82.6664 83.7217 79.7815 85.3625 76.9246L84.0618 76.1775ZM79.1389 84.7748C78.2171 86.3717 77.1712 88.0367 76.2543 89.6903L77.5662 90.4176C78.4874 88.7561 79.4642 87.2118 80.438 85.5248L79.1389 84.7748ZM76.2543 89.6904C76.1634 89.8544 76.1058 89.8801 76.0902 89.8874C76.052 89.9054 75.9661 89.9303 75.7304 89.9297L75.7271 91.4297C76.0258 91.4304 76.3839 91.4072 76.7294 91.2444C77.0975 91.071 77.3635 90.7832 77.5662 90.4175L76.2543 89.6904ZM75.73 89.9297C70.1366 89.9201 64.5446 89.9225 58.9514 89.9345L58.9546 91.4345C64.5461 91.4225 70.1362 91.4201 75.7275 91.4297L75.73 89.9297ZM58.9524 89.9345C53.3072 89.9393 47.6655 89.9514 42.0232 89.9381L42.0197 91.4381C47.6652 91.4514 53.3111 91.4393 58.9536 91.4345L58.9524 89.9345Z" fill="#2E55EC"></path>
<path d="M69.4368 14.495C69.851 14.4954 70.1871 14.16 70.1875 13.7458C70.1879 13.3316 69.8525 12.9954 69.4383 12.995L69.4368 14.495ZM51.2262 13.7655H50.4762C50.4762 14.1797 50.812 14.5155 51.2262 14.5155V13.7655ZM51.2262 13.745H51.9762C51.9762 13.3308 51.6404 12.995 51.2262 12.995V13.745ZM33.0425 13.7643L33.0448 14.5143L33.0458 14.5142L33.0425 13.7643ZM31.9017 14.1955L31.3324 13.7072L31.3317 13.708L31.9017 14.1955ZM30.7694 16.0223L30.1208 15.6457L30.1203 15.6466L30.7694 16.0223ZM26.7504 22.9792L27.3995 23.3548L27.4001 23.3538L26.7504 22.9792ZM20.3229 34.1363L20.9734 34.5095L20.9734 34.5095L20.3229 34.1363ZM69.4383 12.995C63.3807 12.989 57.2789 13.0155 51.2262 13.0155V14.5155C57.2951 14.5155 63.3727 14.489 69.4368 14.495L69.4383 12.995ZM51.9762 13.7655V13.745H50.4762V13.7655H51.9762ZM51.2262 12.995C45.1654 12.995 39.1022 12.9878 33.0392 13.0143L33.0458 14.5142C39.1045 14.4878 45.1629 14.495 51.2262 14.495V12.995ZM33.0402 13.0143C32.756 13.0151 32.4457 13.0707 32.1636 13.1707C31.8925 13.2668 31.5686 13.4318 31.3324 13.7072L32.4711 14.6837C32.4697 14.6852 32.5215 14.6353 32.6647 14.5845C32.7969 14.5377 32.9396 14.5146 33.0448 14.5143L33.0402 13.0143ZM31.3317 13.708C30.8125 14.3152 30.4343 15.1059 30.1208 15.6457L31.4179 16.399C31.8258 15.6968 32.0707 15.1519 32.4718 14.6829L31.3317 13.708ZM30.1203 15.6466C28.778 17.9651 27.4381 20.2849 26.1007 22.6046L27.4001 23.3538C28.7372 21.0348 30.0766 18.7158 31.4185 16.3981L30.1203 15.6466ZM26.1012 22.6035C23.951 26.3195 21.8081 30.0401 19.6723 33.7631L20.9734 34.5095C23.1083 30.788 25.2504 27.069 27.3995 23.3548L26.1012 22.6035ZM19.6723 33.7631C17.7415 37.1285 15.8037 40.4985 13.9113 43.8942L15.2215 44.6244C17.1084 41.2386 19.0411 37.8776 20.9734 34.5095L19.6723 33.7631Z" fill="#2E55EC"></path>
<path d="M54.3494 38.998L56.7339 43.3016L54.3494 48.4027L55.6219 57.488H48.1483L49.4197 48.4027L47.0352 43.3016L49.4197 38.998H54.3494Z" fill="#2E55EC"></path>
<path d="M63.8807 3.5C63.8807 4.88071 62.7614 6 61.3807 6C60 6 58.8807 4.88071 58.8807 3.5C58.8807 2.11929 60 1 61.3807 1C62.7614 1 63.8807 2.11929 63.8807 3.5Z" fill="#2E55EC"></path>
<path d="M38.0214 25.3652C38.0214 26.7459 36.9021 27.8652 35.5214 27.8652C34.1406 27.8652 33.0214 26.7459 33.0214 25.3652C33.0214 23.9845 34.1406 22.8652 35.5214 22.8652C36.9021 22.8652 38.0214 23.9845 38.0214 25.3652Z" fill="#2E55EC"></path>
<path d="M17.0663 44.2593C17.0663 45.64 15.947 46.7593 14.5663 46.7593C13.1856 46.7593 12.0663 45.64 12.0663 44.2593C12.0663 42.8786 13.1856 41.7593 14.5663 41.7593C15.947 41.7593 17.0663 42.8786 17.0663 44.2593Z" fill="#2E55EC"></path>
<path d="M44.5214 90.6943C44.5214 92.075 43.4021 93.1943 42.0214 93.1943C40.6406 93.1943 39.5214 92.075 39.5214 90.6943C39.5214 89.3136 40.6406 88.1943 42.0214 88.1943C43.4021 88.1943 44.5214 89.3136 44.5214 90.6943Z" fill="#2E55EC"></path>
<path d="M68.7665 70.8647C68.7665 72.2455 67.6472 73.3647 66.2665 73.3647C64.8858 73.3647 63.7665 72.2455 63.7665 70.8647C63.7665 69.484 64.8858 68.3647 66.2665 68.3647C67.6472 68.3647 68.7665 69.484 68.7665 70.8647Z" fill="#2E55EC"></path>
<path d="M81.1357 26.9883C81.1357 28.369 80.0165 29.4883 78.6357 29.4883C77.255 29.4883 76.1357 28.369 76.1357 26.9883C76.1357 25.6076 77.255 24.4883 78.6357 24.4883C80.0165 24.4883 81.1357 25.6076 81.1357 26.9883Z" fill="#2E55EC"></path>
<path d="M139.42 72.2C135.7 72.2 132.04 71.14 128.44 69.02L123.34 71.6H122.02V56.18H123.34L128.5 67.34C131.82 69.7 135.62 70.88 139.9 70.88C143.42 70.88 146.32 69.96 148.6 68.12C150.92 66.24 152.08 63.62 152.08 60.26C152.08 57.82 151.34 55.9 149.86 54.5C148.38 53.06 145.98 51.92 142.66 51.08L132.7 48.5C129.22 47.58 126.6 46.02 124.84 43.82C123.08 41.58 122.2 38.94 122.2 35.9C122.2 33.14 122.74 30.7 123.82 28.58C124.94 26.42 126.56 24.76 128.68 23.6C130.8 22.4 133.32 21.8 136.24 21.8C139.88 21.8 143.14 22.42 146.02 23.66L150.4 21.8H151.72V34.04H150.4L146.08 25.28C143.08 23.84 139.82 23.12 136.3 23.12C132.82 23.12 130.08 24.02 128.08 25.82C126.08 27.58 125.08 29.92 125.08 32.84C125.08 35 125.78 36.7 127.18 37.94C128.62 39.18 130.72 40.16 133.48 40.88L144.22 43.7C147.7 44.58 150.28 46.1 151.96 48.26C153.68 50.38 154.54 53.62 154.54 57.98C154.54 62.42 153.16 65.9 150.4 68.42C147.68 70.94 144.02 72.2 139.42 72.2ZM159.221 69.8L163.421 69.2V24.8L159.221 24.2V23H169.421V46.4C170.901 44.24 172.641 42.54 174.641 41.3C176.641 40.02 178.801 39.38 181.121 39.38C184.001 39.38 186.261 40.1 187.901 41.54C189.581 42.98 190.421 45.12 190.421 47.96V69.2L194.621 69.8V71H180.821V69.8L184.421 69.2V48.08C184.421 46 184.001 44.4 183.161 43.28C182.321 42.12 181.021 41.54 179.261 41.54C177.421 41.54 175.641 42.22 173.921 43.58C172.241 44.9 170.741 46.54 169.421 48.5V69.2L173.021 69.8V71H159.221V69.8ZM207.215 71.6C204.655 71.6 202.555 70.94 200.915 69.62C199.275 68.26 198.455 66.26 198.455 63.62C198.455 59.86 200.035 57.2 203.195 55.64C206.355 54.04 210.015 53.24 214.175 53.24H218.195V48.62C218.195 46.54 217.955 44.94 217.475 43.82C217.035 42.66 216.335 41.86 215.375 41.42C214.415 40.94 213.115 40.7 211.475 40.7C209.595 40.7 208.195 41.08 207.275 41.84C206.355 42.56 205.895 43.54 205.895 44.78C205.895 45.94 206.455 46.7 207.575 47.06C207.575 48.06 207.195 48.94 206.435 49.7C205.675 50.46 204.775 50.84 203.735 50.84C202.615 50.84 201.715 50.54 201.035 49.94C200.355 49.3 200.015 48.34 200.015 47.06C200.015 44.74 201.175 42.88 203.495 41.48C205.815 40.08 208.715 39.38 212.195 39.38C220.195 39.38 224.195 42.86 224.195 49.82V66.98C224.195 67.86 224.375 68.54 224.735 69.02C225.135 69.46 225.695 69.68 226.415 69.68C227.095 69.68 227.635 69.46 228.035 69.02C228.435 68.54 228.635 67.9 228.635 67.1H229.895C229.895 68.5 229.435 69.6 228.515 70.4C227.635 71.2 226.395 71.6 224.795 71.6C222.955 71.6 221.395 71.08 220.115 70.04C218.875 68.96 218.235 67.3 218.195 65.06C217.235 67.1 215.755 68.7 213.755 69.86C211.795 71.02 209.615 71.6 207.215 71.6ZM210.515 68.96C211.595 68.96 212.695 68.64 213.815 68C214.975 67.36 215.955 66.44 216.755 65.24C217.555 64 218.035 62.52 218.195 60.8V54.56H214.175C210.895 54.56 208.435 55.3 206.795 56.78C205.195 58.22 204.395 60.26 204.395 62.9C204.395 65.1 204.915 66.66 205.955 67.58C206.995 68.5 208.515 68.96 210.515 68.96ZM231.358 69.8L235.558 69.2V41.72L231.358 41.12V39.92H241.558V44.54C244.078 41.1 246.918 39.38 250.078 39.38C251.598 39.38 252.938 39.78 254.098 40.58C255.258 41.34 255.838 42.44 255.838 43.88C255.838 44.92 255.498 45.8 254.818 46.52C254.138 47.2 253.238 47.54 252.118 47.54C250.838 47.54 249.798 47.04 248.998 46.04C249.438 45.48 249.658 44.88 249.658 44.24C249.658 43.56 249.418 43.02 248.938 42.62C248.498 42.18 247.898 41.96 247.138 41.96C246.298 41.96 245.438 42.36 244.558 43.16C243.678 43.92 242.678 45.12 241.558 46.76V69.2L246.358 69.8V71H231.358V69.8ZM274.115 71.6C271.155 71.6 268.475 70.94 266.075 69.62C263.675 68.26 261.775 66.36 260.375 63.92C258.975 61.48 258.275 58.66 258.275 55.46C258.275 52.26 258.955 49.46 260.315 47.06C261.715 44.62 263.575 42.74 265.895 41.42C268.255 40.06 270.875 39.38 273.755 39.38C276.275 39.38 278.535 39.94 280.535 41.06C282.535 42.18 284.095 43.74 285.215 45.74C286.335 47.7 286.915 49.96 286.955 52.52H264.875V58.46C264.875 61.98 265.655 64.84 267.215 67.04C268.815 69.2 271.115 70.28 274.115 70.28C276.875 70.28 279.315 69.5 281.435 67.94C283.555 66.38 284.855 64.36 285.335 61.88H286.715C286.155 64.84 284.735 67.2 282.455 68.96C280.175 70.72 277.395 71.6 274.115 71.6ZM280.355 51.02C280.355 47.54 279.815 44.96 278.735 43.28C277.655 41.56 275.975 40.7 273.695 40.7C271.015 40.7 268.935 41.64 267.455 43.52C265.975 45.4 265.135 47.9 264.935 51.02H280.355ZM291.728 71V69.74L297.248 68.84V25.16L291.728 24.32V23H309.368V24.32L303.848 25.16V68.84L309.368 69.74V71H291.728ZM314.17 69.74L319.69 68.84V25.16L314.17 24.32V23H337.15C341.55 23 345.45 24 348.85 26C352.29 27.96 354.97 30.76 356.89 34.4C358.81 38 359.77 42.2 359.77 47C359.77 51.8 358.81 56.02 356.89 59.66C354.97 63.26 352.29 66.06 348.85 68.06C345.41 70.02 341.51 71 337.15 71H314.17V69.74ZM337.15 69.56C340.07 69.56 342.65 68.88 344.89 67.52C347.17 66.16 348.95 64.14 350.23 61.46C351.51 58.74 352.15 55.46 352.15 51.62V42.38C352.15 38.54 351.51 35.28 350.23 32.6C348.95 29.92 347.17 27.9 344.89 26.54C342.65 25.18 340.07 24.5 337.15 24.5H326.29V69.56H337.15Z" fill="#2E55EC"></path>
</svg>